<?xml version="1.0" encoding="UTF-8"?>
<!DOCTYPE svg PUBLIC "-//W3C//DTD SVG 1.1//EN" "http://www.w3.org/Graphics/SVG/1.1/DTD/svg11.dtd">
<!-- Creator: CorelDRAW X6 -->
<svg xmlns="http://www.w3.org/2000/svg" xml:space="preserve" width="267.786mm" height="157.094mm" version="1.1" style="shape-rendering:geometricPrecision; text-rendering:geometricPrecision; image-rendering:optimizeQuality; fill-rule:evenodd; clip-rule:evenodd"
viewBox="0 0 30727 18026"
 xmlns:xlink="http://www.w3.org/1999/xlink">
 <defs>
  <style type="text/css">
   <![CDATA[
    .fil0 {fill:#fff}
    .fil1 {fill:#fff;fill-rule:nonzero}
   ]]>
  </style>
 </defs>
 <g id="Layer_x0020_1">
  <metadata id="CorelCorpID_0Corel-Layer"/>
  <g id="_629151056">
   <path class="fil0" d="M33 4428l9322 0 6097 -4428c2032,1476 4065,2952 6097,4428l9162 0 15 998 -9311 0 -1622 -1078 -8819 0 -1510 1078 -9430 4 0 -1002zm18342 -1067l-2923 -2122 -2923 2122 5845 0z"/>
   <path class="fil0" d="M33 13598l9322 0 6097 4428c2032,-1476 4065,-2952 6097,-4428l9162 0 15 -998 -9311 0 -1622 1078 -8819 0 -1510 -1078 -9430 -4 0 1002zm18342 1067l-2923 2122 -2923 -2122 5845 0z"/>
   <path class="fil1" d="M11235 11543l-1085 0 -429 -1132 -1995 0 -413 1132 -1065 0 1931 -4974 1064 0 1992 4974zm-1841 -1973l-691 -1841 -671 1841 1363 0zm2377 -3001l1989 0c395,0 688,16 881,49 195,34 367,102 520,205 153,104 280,242 382,414 102,172 153,367 153,581 0,232 -63,446 -188,639 -125,195 -295,339 -509,436 302,89 534,240 697,453 162,213 243,463 243,751 0,227 -52,447 -157,661 -105,214 -249,386 -432,514 -182,127 -406,206 -674,236 -167,17 -571,29 -1211,34l-1694 0 0 -4974zm1007 827l0 1146 658 0c390,0 633,-6 728,-17 171,-20 307,-79 405,-177 98,-98 147,-227 147,-387 0,-154 -43,-278 -127,-374 -85,-96 -211,-154 -377,-174 -100,-12 -386,-17 -857,-17l-577 0zm0 1973l0 1334 931 0c361,0 592,-10 689,-30 149,-28 271,-94 365,-199 94,-107 141,-247 141,-424 0,-151 -36,-277 -109,-381 -72,-104 -177,-181 -314,-228 -137,-47 -434,-72 -891,-72l-812 0zm3974 2174l0 -4974 1007 0 0 4974 -1007 0zm1965 -4974l1831 0c413,0 728,31 945,95 291,86 541,238 748,458 208,219 366,487 475,806 108,317 162,710 162,1175 0,410 -51,762 -153,1058 -124,362 -301,655 -531,879 -174,170 -409,302 -704,397 -221,71 -516,105 -887,105l-1886 0 0 -4974zm1007 840l0 3293 747 0c279,0 480,-16 604,-47 163,-41 298,-110 404,-207 108,-97 194,-257 262,-479 68,-222 102,-527 102,-911 0,-384 -34,-678 -102,-884 -67,-206 -162,-366 -284,-482 -122,-115 -276,-193 -463,-234 -139,-31 -413,-47 -821,-47l-449 0zm3974 4133l0 -4974 1007 0 0 4974 -1007 0z"/>
   <path class="fil1" d="M0 9846l0 -1579 338 0c128,0 212,8 251,24 60,24 110,75 150,155 40,79 61,182 61,308 0,97 -12,178 -35,244 -23,66 -53,118 -89,156 -36,37 -72,62 -109,75 -50,15 -123,23 -218,23l-137 0 0 595 -212 0zm212 -1312l0 450 115 0c83,0 138,-8 166,-25 28,-17 50,-42 66,-78 16,-35 24,-76 24,-123 0,-58 -11,-105 -33,-143 -22,-37 -50,-61 -85,-71 -25,-7 -75,-11 -151,-11l-101 0zm762 1312l0 -1579 212 0 0 622 412 0 0 -622 212 0 0 1579 -212 0 0 -690 -412 0 0 690 -212 0zm1995 0l-228 0 -90 -359 -419 0 -87 359 -224 0 406 -1579 224 0 419 1579zm-387 -626l-145 -584 -141 584 286 0zm499 626l0 -1579 444 0c112,0 193,14 243,43 51,28 91,79 122,151 30,73 46,155 46,249 0,119 -23,216 -69,294 -46,77 -115,126 -206,146 45,40 83,84 112,132 30,48 70,134 120,257l127 308 -252 0 -151 -345c-54,-122 -91,-200 -112,-232 -20,-32 -41,-54 -63,-65 -23,-12 -58,-18 -107,-18l-43 0 0 659 -212 0zm212 -911l156 0c101,0 164,-7 189,-19 25,-13 45,-35 59,-67 14,-32 21,-71 21,-119 0,-53 -9,-96 -28,-129 -19,-33 -45,-53 -79,-62 -17,-4 -69,-6 -154,-6l-165 0 0 401zm839 911l0 -1579 317 0 187 1077 185 -1077 318 0 0 1579 -196 0 -1 -1243 -206 1243 -203 0 -205 -1243 -1 1243 -196 0z"/>
   <path class="fil1" d="M27970 9846l0 -1579 257 0 0 1579 -257 0zm501 0l0 -1579 249 0 522 1058 0 -1058 237 0 0 1579 -256 0 -514 -1038 0 1038 -237 0zm1564 0l0 -1312 -375 0 0 -267 1006 0 0 267 -374 0 0 1312 -257 0z"/>
  </g>
 </g>
</svg>
